#!OML:ASF I:\golf\golf\golf 2\Subject 1\2002-09-07\Subject1.ASF
:FULLY-SPECIFIED
:DEGREES
429
root -6.38847 18.1779 -3.00843 -166.639 5.09626 -175.312
lowerback -5.8274 9.13608 10.6996
upperback -6.97206 13.3061 3.32665
thorax -2.71512 6.85457 -1.74262
lowerneck -18.5393 -13.3925 -2.24245
upperneck 12.0852 -17.9831 2.4993
head 7.09411 -8.54216 -0.930962
rclavicle -1.59028e-013 -7.4743e-014
rhumerus 57.9509 32.1681 -70.0773
rradius 59.0488
rwrist -5.93313
rhand -46.6036 35.9039
rfingers 7.12502
rthumb -19.3262 6.84423
lclavicle -1.59028e-013 -7.4743e-014
lhumerus 51.3818 -16.1515 60.0414
lradius 46.5646
lwrist 13.1674
lhand 152.248 193.682
lfingers 7.12502
lthumb -181.146 -136.341
rfemur 9.87609 -0.841444 20.295
rtibia 21.3174
rfoot 26.5845 -20.1177
rtoes 6.26216
lfemur -25.9777 -14.3554 -12.3025
ltibia 20.0383
lfoot 38.2454 -40.8426
ltoes 51.1931
430
root -6.38345 18.1811 -2.99592 -166.642 5.27313 -175.345
lowerback -5.73215 9.06273 10.563
upperback -6.87099 13.1883 3.35828
thorax -2.70008 6.7933 -1.66075
lowerneck -18.8516 -13.2432 -2.31367
upperneck 12.2246 -17.7525 2.46941
head 7.18978 -8.42466 -0.929592
rclavicle -6.85807e-014 3.81667e-014
rhumerus 56.8841 32.5321 -70.1996
rradius 59.1763
rwrist -6.06271
rhand -46.8156 35.8658
rfingers 7.12502
rthumb -19.53 6.82673
lclavicle -6.85807e-014 3.81667e-014
lhumerus 50.4206 -16.5022 61.1156
lradius 46.3562
lwrist 13.1741
lhand 152.526 192.811
lfingers 7.12502
lthumb -180.878 -137.211
rfemur 9.83828 -0.894842 20.184
rtibia 21.3378
rfoot 26.5527 -19.9317
rtoes 6.10264
lfemur -25.9529 -14.3552 -12.3151
ltibia 19.9848
lfoot 38.1771 -40.5758
ltoes 51.319
431
root -6.37736 18.1813 -2.9843 -166.63 5.44657 -175.302
lowerback -5.65032 9.00847 10.5082
upperback -6.77087 13.0962 3.39628
thorax -2.66288 6.74459 -1.60741
lowerneck -19.1258 -13.1574 -2.49751
upperneck 12.3052 -17.5893 2.52009
head 7.27887 -8.33895 -0.892149
rclavicle 5.96354e-016 -7.95139e-015
rhumerus 55.8418 32.8497 -70.3451
rradius 59.2071
rwrist -6.10884
rhand -47.0698 36.1551
rfingers 7.12502
rthumb -19.7744 7.14093
lclavicle 5.96354e-016 -7.95139e-015
lhumerus 49.4735 -16.7668 62.2425
lradius 46.2352
lwrist 12.8432
lhand 153.152 192.282
lfingers 7.12502
lthumb -180.273 -137.738
rfemur 9.82542 -1.07965 20.1207
rtibia 21.2869
rfoot 26.8376 -19.3452
rtoes 4.92354
lfemur -25.9735 -14.3436 -12.2353
ltibia 19.9992
lfoot 38.3492 -39.9035
ltoes 51.8088
432
root -6.36772 18.1817 -2.97295 -166.576 5.58285 -175.065
lowerback -5.68566 8.98356 10.6442
upperback -6.64685 13.0253 3.45236
thorax -2.50383 6.70924 -1.60213
lowerneck -19.3671 -13.0469 -2.52057
upperneck 12.2952 -17.4342 2.58899
head 7.32047 -8.25329 -0.864074
rclavicle 3.75703e-014 -4.13472e-014
rhumerus 54.7966 32.9866 -70.7589
rradius 59.1556
rwrist -5.59241
rhand -46.8332 35.7169
rfingers 7.12502
rthumb -19.547 6.67949
lclavicle 3.75703e-014 -4.13472e-014
lhumerus 48.6683 -17.1067 63.1585
lradius 46.1739
lwrist 12.8655
lhand 153.497 192.03
lfingers 7.12502
lthumb -179.94 -137.99
rfemur 9.78965 -1.12884 20.3362
rtibia 21.205
rfoot 27.022 -19.1353
rtoes 4.38927
lfemur -26.0594 -14.32 -11.8964
ltibia 20.075
lfoot 38.3959 -39.4556
ltoes 52.2052
433
root -6.35685 18.1846 -2.96332 -166.555 5.75453 -174.814
lowerback -5.74488 8.96032 10.7979
upperback -6.45097 12.9383 3.54164
thorax -2.2604 6.66877 -1.56085
lowerneck -19.6586 -12.9138 -2.6003
upperneck 12.2204 -17.2269 2.67137
head 7.35356 -8.14362 -0.817598
rclavicle 3.47873e-014 1.43125e-014
rhumerus 54.2034 33.5514 -70.4258
rradius 59.2556
rwrist -7.07511
rhand -47.7225 37.3204
rfingers 7.12502
rthumb -20.4017 8.37215
lclavicle 3.47873e-014 1.43125e-014
lhumerus 47.9386 -17.4608 63.8093
lradius 46.1557
lwrist 13.5541
lhand 153.179 191.851
lfingers 7.12502
lthumb -180.247 -138.17
rfemur 9.78012 -0.972196 20.6159
rtibia 21.152
rfoot 26.8052 -19.4954
rtoes 4.66958
lfemur -26.0908 -14.1465 -11.5908
ltibia 20.1714
lfoot 38.1893 -39.6239
ltoes 52.096
434
root -6.34729 18.1869 -2.95476 -166.568 5.97811 -174.707
lowerback -5.55949 8.95509 10.7999
upperback -6.42681 12.9389 3.53231
thorax -2.33146 6.65876 -1.60249
lowerneck -19.8769 -12.8265 -2.67843
upperneck 12.3157 -17.1095 2.79233
head 7.43673 -8.07192 -0.773927
rclavicle -1.5704e-014 2.54444e-014
rhumerus 53.0797 33.8692 -70.7748
rradius 59.2818
rwrist -7.16548
rhand -48.127 37.9345
rfingers 7.12502
rthumb -20.7904 9.02829
lclavicle -1.5704e-014 2.54444e-014
lhumerus 47.0514 -17.9887 64.4679
lradius 46.1332
lwrist 14.0399
lhand 152.856 191.627
lfingers 7.12502
lthumb -180.559 -138.394
rfemur 9.78052 -0.786346 20.7201
rtibia 21.154
rfoot 26.4976 -19.7984
rtoes 4.79298
lfemur -26.0608 -13.914 -11.5059
ltibia 20.2325
lfoot 37.9232 -39.8813
ltoes 51.7833
435
root -6.33776 18.1867 -2.94438 -166.563 6.18266 -174.692
lowerback -5.41408 8.98267 10.7042
upperback -6.4451 12.9747 3.42871
thorax -2.41785 6.66376 -1.68355
lowerneck -19.939 -12.7569 -2.61671
upperneck 12.3003 -17.0572 2.92769
head 7.44876 -8.03213 -0.737739
rclavicle 8.64713e-014 6.36111e-015
rhumerus 51.7772 33.8738 -71.558
rradius 59.1278
rwrist -6.72426
rhand -47.8952 38.4288
rfingers 7.12502
rthumb -20.5677 9.4984
lclavicle 8.64713e-014 6.36111e-015
lhumerus 46.209 -18.5128 65.2947
lradius 46.0086
lwrist 14.1908
lhand 152.772 191.461
lfingers 7.12502
lthumb -180.64 -138.56
rfemur 9.72012 -0.684197 20.7202
rtibia 21.2241
rfoot 26.2061 -20.1553
rtoes 5.51646
lfemur -26.0373 -13.9069 -11.4488
ltibia 20.218
lfoot 37.2792 -40.2477
ltoes 51.2721
436
root -6.32899 18.1874 -2.93195 -166.539 6.37203 -174.756
lowerback -5.31101 9.02723 10.5328
upperback -6.48844 13.0293 3.28366
thorax -2.5103 6.6792 -1.76195
lowerneck -19.8395 -12.6987 -2.4868
upperneck 12.1707 -17.019 2.97771
head 7.38294 -8.01131 -0.723004
rclavicle -1.78906e-015 5.24792e-014
rhumerus 50.3315 33.5416 -72.7281
rradius 58.8388
rwrist -4.99803
rhand -46.8317 36.5956
rfingers 7.12502
rthumb -19.5455 7.55804
lclavicle -1.78906e-015 5.24792e-014
lhumerus 45.4034 -19.0139 66.1821
lradius 45.8126
lwrist 14.3215
lhand 152.698 191.184
lfingers 7.12502
lthumb -180.712 -138.838
rfemur 9.5898 -0.655769 20.631
rtibia 21.3675
rfoot 25.8319 -20.6211
rtoes 6.73986
lfemur -26.0235 -13.9724 -11.4422
ltibia 20.1339
lfoot 36.5019 -40.7294
ltoes 50.7178
437
root -6.32271 18.1884 -2.92091 -166.534 6.59851 -174.968
lowerback -5.18911 9.10841 10.2811
upperback -6.55871 13.1307 3.06413
thorax -2.63416 6.71481 -1.87712
lowerneck -19.7371 -12.6867 -2.37859
upperneck 12.1824 -17.0439 2.9999
head 7.36405 -8.02039 -0.728081
rclavicle -6.77856e-014 -8.74653e-014
rhumerus 49.0945 33.502 -73.3043
rradius 58.7907
rwrist -4.93472
rhand -47.0796 36.8088
rfingers 7.12502
rthumb -19.7838 7.79561
lclavicle -6.77856e-014 -8.74653e-014
lhumerus 44.6535 -19.6259 66.8471
lradius 45.6715
lwrist 14.4588
lhand 152.58 190.773
lfingers 7.12502
lthumb -180.826 -139.249
rfemur 9.45089 -0.682417 20.3354
rtibia 21.545
rfoot 25.5903 -20.7467
rtoes 7.44416
lfemur -25.9908 -14.0279 -11.6345
ltibia 20.0306
lfoot 35.9287 -40.9677
ltoes 50.421
438
root -6.31617 18.1886 -2.91183 -166.524 6.82205 -175.153
lowerback -5.08954 9.19751 10.0988
upperback -6.60155 13.2302 2.83416
thorax -2.70084 6.74891 -2.02891
lowerneck -19.6612 -12.6763 -2.23272
upperneck 12.1732 -17.074 3.00123
head 7.33734 -8.03233 -0.74571
rclavicle 6.72886e-014 3.49861e-014
rhumerus 47.9647 33.3886 -73.8893
rradius 58.667
rwrist -4.73662
rhand -47.1609 36.8886
rfingers 7.12502
rthumb -19.862 7.88353
lclavicle 6.72886e-014 3.49861e-014
lhumerus 44.0304 -20.192 67.4477
lradius 45.4076
lwrist 14.2656
lhand 152.462 190.397
lfingers 7.12502
lthumb -180.94 -139.625
rfemur 9.33838 -0.72954 20.0495
rtibia 21.6738
rfoot 25.3845 -20.7351
rtoes 8.02752
lfemur -25.9683 -14.1002 -11.7962
ltibia 19.9612
lfoot 35.5205 -40.9429
ltoes 50.2923
439
root -6.30717 18.1876 -2.90235 -166.502 6.97813 -175.113
lowerback -5.09494 9.22958 10.1248
upperback -6.48231 13.223 2.76529
thorax -2.54629 6.7395 -2.09261
lowerneck -19.845 -12.6114 -2.14281
upperneck 12.0836 -16.987 2.96061
head 7.32389 -7.98867 -0.765905
rclavicle -3.8266e-014 -2.22639e-014
rhumerus 47.3516 33.4724 -74.1175
rradius 58.5772
rwrist -4.81564
rhand -47.2919 36.3658
rfingers 7.12502
rthumb -19.9879 7.37376
lclavicle -3.8266e-014 -2.22639e-014
lhumerus 43.534 -20.3019 68.3336
lradius 44.974
lwrist 13.6407
lhand 152.373 190.014
lfingers 7.12502
lthumb -181.025 -140.009
rfemur 9.28071 -0.761495 20.0443
rtibia 21.724
rfoot 25.1369 -20.8678
rtoes 8.86653
lfemur -25.9693 -14.1052 -11.6963
ltibia 19.9485
lfoot 35.2207 -40.9734
ltoes 50.1524
440
root -6.29713 18.1871 -2.894 -166.523 7.10488 -174.905
lowerback -5.0908 9.21221 10.2953
upperback -6.26682 13.1463 2.83231
thorax -2.30673 6.70039 -2.08945
lowerneck -20.2828 -12.526 -2.23661
upperneck 12.1503 -16.8338 2.9692
head 7.42202 -7.90458 -0.76074
rclavicle -7.65321e-015 -3.18055e-015
rhumerus 47.1648 33.8582 -73.8699
rradius 58.5823
rwrist -5.65575
rhand -47.491 35.8537
rfingers 7.12502
rthumb -20.1792 6.88182
lclavicle -7.65321e-015 -3.18055e-015
lhumerus 43.0327 -20.1156 69.293
lradius 44.6717
lwrist 13.2429
lhand 152.492 189.697
lfingers 7.12502
lthumb -180.911 -140.325
rfemur 9.31158 -0.66158 20.2724
rtibia 21.722
rfoot 24.9543 -21.1275
rtoes 9.43157
lfemur -25.9308 -14.1059 -11.4167
ltibia 20.004
lfoot 35.1378 -40.728
ltoes 50.421
